<?xml version="1.0" ?><svg data-name="Layer 1" id="Layer_1" viewBox="0 0 24 24" xmlns="http://www.w3.org/2000/svg"><defs><style>.cls-1{fill:#388e3c;}.cls-2{fill:#c8e6c9;}.cls-3{fill:#e8f5e9;}</style></defs><title/><path class="cls-1" d="M16.5,22h-9a3,3,0,0,1-3-3V5a3,3,0,0,1,3-3h6.59a1,1,0,0,1,.7.29l4.42,4.42a1,1,0,0,1,.29.7V19A3,3,0,0,1,16.5,22Z"/><path class="cls-2" d="M18.8,7.74H15.2a1.5,1.5,0,0,1-1.5-1.5V2.64a.55.55,0,0,1,.94-.39L19.19,6.8A.55.55,0,0,1,18.8,7.74Z"/><path class="cls-3" d="M8.37,18.31a1.19,1.19,0,0,1-.51-.1.88.88,0,0,1-.34-.29.74.74,0,0,1-.12-.42.63.63,0,0,1,.14-.42A.8.8,0,0,1,8,16.85a4.56,4.56,0,0,1,.83-.06H9v-.07a.3.3,0,0,0-.1-.26.49.49,0,0,0-.31-.07l-.28,0a1.73,1.73,0,0,0-.33.1.34.34,0,0,1-.28,0,.33.33,0,0,1-.14-.19.36.36,0,0,1,.25-.43,2.25,2.25,0,0,1,.44-.12l.38,0a1.32,1.32,0,0,1,.91.27,1,1,0,0,1,.3.83v1c0,.3-.14.45-.41.45A.38.38,0,0,1,9,17.9a.6.6,0,0,1-.24.3A.68.68,0,0,1,8.37,18.31Zm.2-.58a.45.45,0,0,0,.31-.12A.42.42,0,0,0,9,17.3v-.09H8.82a1.22,1.22,0,0,0-.44.06.2.2,0,0,0-.13.2.24.24,0,0,0,.08.19A.33.33,0,0,0,8.57,17.73Z"/><path class="cls-3" d="M11.06,19.21c-.3,0-.44-.16-.44-.46V16.2c0-.3.14-.45.43-.45a.39.39,0,0,1,.44.37.63.63,0,0,1,.3-.28.93.93,0,0,1,.45-.1,1,1,0,0,1,.56.16,1.1,1.1,0,0,1,.38.44,1.6,1.6,0,0,1,.13.69,1.59,1.59,0,0,1-.13.68,1,1,0,0,1-.38.45,1,1,0,0,1-.56.15,1,1,0,0,1-.43-.09.7.7,0,0,1-.3-.26v.79a.45.45,0,0,1-.12.34A.45.45,0,0,1,11.06,19.21Zm.9-1.55a.43.43,0,0,0,.33-.15.71.71,0,0,0,.13-.48.72.72,0,0,0-.13-.49A.45.45,0,0,0,12,16.4a.46.46,0,0,0-.34.14.78.78,0,0,0-.13.49.76.76,0,0,0,.13.48A.43.43,0,0,0,12,17.66Z"/><path class="cls-3" d="M14.42,18.3a.44.44,0,0,1-.33-.11.5.5,0,0,1-.11-.34V15.13a.39.39,0,0,1,.44-.45.45.45,0,0,1,.34.12.49.49,0,0,1,.11.33v1.66h0l.61-.74a1.24,1.24,0,0,1,.24-.23.5.5,0,0,1,.29-.07.44.44,0,0,1,.29.09.33.33,0,0,1,.1.23.45.45,0,0,1-.11.27l-.53.63.61.77a.38.38,0,0,1,.09.27.27.27,0,0,1-.13.21.4.4,0,0,1-.27.08.58.58,0,0,1-.32-.07.85.85,0,0,1-.24-.23l-.63-.77h0v.62A.4.4,0,0,1,14.42,18.3Z"/></svg>