<?xml version="1.0" ?><svg height="24" version="1.1" width="24" xmlns="http://www.w3.org/2000/svg" xmlns:cc="http://creativecommons.org/ns#" xmlns:dc="http://purl.org/dc/elements/1.1/" xmlns:rdf="http://www.w3.org/1999/02/22-rdf-syntax-ns#"><g transform="translate(0 -1028.4)"><path d="m21 1035.4v4 4 6c0 1.1-0.895 2-2 2h-14c-1.1046 0-2-0.9-2-2v-6-4-4h18z" fill="#7f8c8d"/><path d="m3 1034.4v4 4 6c0 1.1 0.8954 2 2 2h14c1.105 0 2-0.9 2-2v-6-4-4h-18z" fill="#95a5a6"/><rect fill="#7f8c8d" height="3.9998" width="5" x="15" y="1046.4"/><path d="m5 1c-1.1046 0-2 0.8954-2 2v3 1 2 2 2 1 3c0 1.105 0.8954 2 2 2h14c1.105 0 2-0.895 2-2v-3-3-4-1-3c0-1.1046-0.895-2-2-2h-14z" fill="#bdc3c7" transform="translate(0 1028.4)"/><rect fill="#f1c40f" height="1" transform="translate(0 1028.4)" width="3" x="16" y="20"/></g></svg>