<?xml version="1.0" ?><svg data-name="Layer 1" id="Layer_1" viewBox="0 0 24 24" xmlns="http://www.w3.org/2000/svg"><defs><style>.cls-1{fill:#673ab7;}.cls-2{fill:#b388ff;}.cls-3{fill:#ede7f6;}.cls-4{fill:none;}</style></defs><title/><path class="cls-1" d="M16.5,22h-9a3,3,0,0,1-3-3V5a3,3,0,0,1,3-3h6.59a1,1,0,0,1,.7.29l4.42,4.42a1,1,0,0,1,.29.7V19A3,3,0,0,1,16.5,22Z"/><path class="cls-2" d="M18.8,7.74H15.2a1.5,1.5,0,0,1-1.5-1.5V2.64a.55.55,0,0,1,.94-.39L19.19,6.8A.55.55,0,0,1,18.8,7.74Z"/><path class="cls-3" d="M9,19.31a1,1,0,0,1-.56-.15.94.94,0,0,1-.38-.45A1.45,1.45,0,0,1,7.92,18a1.47,1.47,0,0,1,.14-.69,1,1,0,0,1,.94-.6.91.91,0,0,1,.43.1.75.75,0,0,1,.3.25v-1a.4.4,0,0,1,.45-.45.45.45,0,0,1,.33.12.49.49,0,0,1,.11.33v2.72c0,.3-.14.45-.44.45a.37.37,0,0,1-.43-.37.77.77,0,0,1-.31.28A.92.92,0,0,1,9,19.31Zm.28-.65a.43.43,0,0,0,.33-.15A.71.71,0,0,0,9.74,18a.72.72,0,0,0-.13-.49.45.45,0,0,0-.33-.14.42.42,0,0,0-.33.14.72.72,0,0,0-.14.49.71.71,0,0,0,.14.48A.4.4,0,0,0,9.28,18.66Z"/><path class="cls-3" d="M12.72,19.31a1.13,1.13,0,0,1-.83-.26,1,1,0,0,1-.27-.78v-.82h-.17c-.23,0-.34-.11-.34-.33s.11-.33.34-.33h.17v-.31a.49.49,0,0,1,.11-.33.45.45,0,0,1,.33-.12.4.4,0,0,1,.45.45v.31h.41c.23,0,.34.11.34.33s-.11.33-.34.33h-.41v.79a.32.32,0,0,0,.36.36l.14,0h.12a.13.13,0,0,1,.13.05.37.37,0,0,1,.05.23.67.67,0,0,1-.05.26.28.28,0,0,1-.16.14l-.19.05Z"/><path class="cls-3" d="M14.86,19.31a3.4,3.4,0,0,1-.45,0,1.31,1.31,0,0,1-.41-.12.34.34,0,0,1-.21-.17.37.37,0,0,1,.13-.41.28.28,0,0,1,.24,0,2.24,2.24,0,0,0,.38.11l.32,0a.46.46,0,0,0,.27-.05.17.17,0,0,0,.08-.14.14.14,0,0,0-.05-.11.52.52,0,0,0-.15-.06l-.56-.09A.89.89,0,0,1,14,18a.65.65,0,0,1-.17-.46.72.72,0,0,1,.15-.45.94.94,0,0,1,.4-.29,1.64,1.64,0,0,1,.6-.1,1.73,1.73,0,0,1,.41,0,1.65,1.65,0,0,1,.36.11.26.26,0,0,1,.17.17.31.31,0,0,1,0,.23.35.35,0,0,1-.15.17.25.25,0,0,1-.24,0l-.3-.09a1,1,0,0,0-.24,0,.69.69,0,0,0-.29.05.19.19,0,0,0-.08.14c0,.09.06.15.18.17l.56.09a.93.93,0,0,1,.49.22.58.58,0,0,1,.18.45.75.75,0,0,1-.31.63A1.4,1.4,0,0,1,14.86,19.31Z"/><path class="cls-4" d="M8.62,8.62h6.76v6.76H8.62Z"/><path class="cls-3" d="M12,10v2.41a1.05,1.05,0,0,0-.94-.09,1.14,1.14,0,0,0-.73.86,1.13,1.13,0,0,0,1.29,1.31,1.16,1.16,0,0,0,.94-1.16V10.59h.57a.56.56,0,0,0,0-1.12h-.57A.56.56,0,0,0,12,10Z"/></svg>