<?xml version="1.0" ?><svg data-name="Layer 1" id="Layer_1" viewBox="0 0 24 24" xmlns="http://www.w3.org/2000/svg"><defs><style>.cls-1{fill:#009688;}.cls-2{fill:#a7ffeb;}.cls-3{fill:#e0f2f1;}</style></defs><title/><path class="cls-1" d="M16.5,22h-9a3,3,0,0,1-3-3V5a3,3,0,0,1,3-3h6.59a1,1,0,0,1,.7.29l4.42,4.42a1,1,0,0,1,.29.7V19A3,3,0,0,1,16.5,22Z"/><path class="cls-2" d="M18.8,7.74H15.2a1.5,1.5,0,0,1-1.5-1.5V2.64a.55.55,0,0,1,.94-.39L19.19,6.8A.55.55,0,0,1,18.8,7.74Z"/><path class="cls-3" d="M7.14,18.31a1.87,1.87,0,0,1-.78-.15,1.22,1.22,0,0,1-.5-.45,1.39,1.39,0,0,1,0-1.35,1.2,1.2,0,0,1,.46-.46A1.35,1.35,0,0,1,7,15.74a1.19,1.19,0,0,1,.64.16.94.94,0,0,1,.42.44,1.41,1.41,0,0,1,.15.67c0,.13-.07.2-.23.2H6.54a.47.47,0,0,0,.2.34.74.74,0,0,0,.43.11l.25,0a.84.84,0,0,0,.27-.08.32.32,0,0,1,.27,0,.3.3,0,0,1,.15.18.4.4,0,0,1,0,.24.31.31,0,0,1-.19.18,1.63,1.63,0,0,1-.37.13A2.69,2.69,0,0,1,7.14,18.31Zm-.12-2a.48.48,0,0,0-.33.12.57.57,0,0,0-.16.35h.93a.54.54,0,0,0-.13-.36A.43.43,0,0,0,7,16.32Z"/><path class="cls-3" d="M9.29,19.21c-.3,0-.44-.16-.44-.46V16.2c0-.3.14-.45.43-.45a.38.38,0,0,1,.44.37.74.74,0,0,1,.3-.28,1,1,0,0,1,.45-.1,1,1,0,0,1,.56.16,1,1,0,0,1,.38.44,1.75,1.75,0,0,1,0,1.37.94.94,0,0,1-.38.45,1.1,1.1,0,0,1-1,.06.7.7,0,0,1-.3-.26v.79a.45.45,0,0,1-.12.34A.45.45,0,0,1,9.29,19.21Zm.9-1.55a.43.43,0,0,0,.33-.15.71.71,0,0,0,.13-.48.72.72,0,0,0-.13-.49.45.45,0,0,0-.33-.14.46.46,0,0,0-.34.14.78.78,0,0,0-.13.49.76.76,0,0,0,.13.48A.43.43,0,0,0,10.19,17.66Z"/><path class="cls-3" d="M13.14,18.31a.89.89,0,0,1-.71-.26,1.19,1.19,0,0,1-.22-.8V16.2a.39.39,0,0,1,.44-.45.42.42,0,0,1,.45.45v1.07c0,.24.1.36.31.36a.35.35,0,0,0,.29-.13.47.47,0,0,0,.12-.34v-1a.4.4,0,0,1,.45-.45.45.45,0,0,1,.33.12.45.45,0,0,1,.11.33v1.65c0,.3-.14.45-.43.45a.39.39,0,0,1-.44-.36A.77.77,0,0,1,13.14,18.31Z"/><path class="cls-3" d="M17.12,18.31a.93.93,0,0,1-.45-.1.77.77,0,0,1-.31-.28.37.37,0,0,1-.43.37.39.39,0,0,1-.44-.45V15.13a.39.39,0,0,1,.44-.45.45.45,0,0,1,.34.12.49.49,0,0,1,.11.33v1a.73.73,0,0,1,.31-.26,1,1,0,0,1,.43-.09,1,1,0,0,1,.56.16,1,1,0,0,1,.38.44,1.6,1.6,0,0,1,.13.69,1.45,1.45,0,0,1-.14.68,1,1,0,0,1-.93.6Zm-.29-.65a.43.43,0,0,0,.34-.15A.76.76,0,0,0,17.3,17a.78.78,0,0,0-.13-.49.46.46,0,0,0-.34-.14.45.45,0,0,0-.33.14.72.72,0,0,0-.13.49.71.71,0,0,0,.13.48A.43.43,0,0,0,16.83,17.66Z"/></svg>