<?xml version="1.0" ?><svg data-name="Layer 1" id="Layer_1" viewBox="0 0 24 24" xmlns="http://www.w3.org/2000/svg"><defs><style>.cls-1{fill:#673ab7;}.cls-2{fill:#b388ff;}.cls-3{fill:#ede7f6;}.cls-4{fill:none;}</style></defs><title/><path class="cls-1" d="M16.5,22h-9a3,3,0,0,1-3-3V5a3,3,0,0,1,3-3h6.59a1,1,0,0,1,.7.29l4.42,4.42a1,1,0,0,1,.29.7V19A3,3,0,0,1,16.5,22Z"/><path class="cls-2" d="M18.8,7.74H15.2a1.5,1.5,0,0,1-1.5-1.5V2.64a.55.55,0,0,1,.94-.39L19.19,6.8A.55.55,0,0,1,18.8,7.74Z"/><path class="cls-3" d="M8,19.3a.44.44,0,0,1-.33-.11.5.5,0,0,1-.11-.34v-1.4H7.47a.33.33,0,1,1,0-.66H7.6A1.1,1.1,0,0,1,7.9,16a1.37,1.37,0,0,1,.81-.31h.14a.42.42,0,0,1,.26,0,.32.32,0,0,1,.13.15.31.31,0,0,1,0,.19.33.33,0,0,1-.07.17.25.25,0,0,1-.16.08H9a.61.61,0,0,0-.36.11.33.33,0,0,0-.1.27v.07h.29a.33.33,0,1,1,0,.66H8.49v1.4A.4.4,0,0,1,8,19.3Zm2.3,0a.89.89,0,0,1-.71-.25,1.19,1.19,0,0,1-.23-.78V16.13a.39.39,0,0,1,.44-.45.45.45,0,0,1,.34.12.49.49,0,0,1,.11.33v2.12a.41.41,0,0,0,.08.27.23.23,0,0,0,.18.08h.08l.08,0a.14.14,0,0,1,.13.07.51.51,0,0,1,0,.26.32.32,0,0,1-.29.38l-.11,0Z"/><path class="cls-3" d="M12.34,19.31a1.15,1.15,0,0,1-.5-.1.88.88,0,0,1-.34-.29.74.74,0,0,1-.12-.42.58.58,0,0,1,.14-.42.8.8,0,0,1,.45-.23,4.56,4.56,0,0,1,.83-.06H13v-.07a.33.33,0,0,0-.1-.26.49.49,0,0,0-.31-.07l-.28,0a1.73,1.73,0,0,0-.33.1.34.34,0,0,1-.28,0,.33.33,0,0,1-.14-.19.37.37,0,0,1,0-.25.34.34,0,0,1,.22-.18,2.25,2.25,0,0,1,.44-.12l.38,0a1.32,1.32,0,0,1,.91.27,1,1,0,0,1,.3.83v1c0,.3-.14.45-.41.45a.38.38,0,0,1-.42-.4.6.6,0,0,1-.24.3A.69.69,0,0,1,12.34,19.31Zm.2-.58a.45.45,0,0,0,.32-.12A.42.42,0,0,0,13,18.3v-.09H12.8a1.18,1.18,0,0,0-.44.06.21.21,0,0,0-.14.2.25.25,0,0,0,.09.19A.32.32,0,0,0,12.54,18.73Z"/><path class="cls-3" d="M15.84,19.31a1.59,1.59,0,0,1-.72-.15,1,1,0,0,1-.48-.45,1.36,1.36,0,0,1-.17-.69,1.38,1.38,0,0,1,.17-.69,1.14,1.14,0,0,1,.48-.44,1.59,1.59,0,0,1,.72-.15l.31,0a1.73,1.73,0,0,1,.33.1.32.32,0,0,1,.16.14.34.34,0,0,1,0,.2.33.33,0,0,1-.06.19.26.26,0,0,1-.14.11.32.32,0,0,1-.21,0,.81.81,0,0,0-.34-.08.53.53,0,0,0-.41.16.69.69,0,0,0-.14.45.7.7,0,0,0,.14.46.53.53,0,0,0,.41.16.5.5,0,0,0,.17,0l.17-.05a.27.27,0,0,1,.21,0,.41.41,0,0,1,.14.12.6.6,0,0,1,.06.19.48.48,0,0,1,0,.2.33.33,0,0,1-.17.13,1.82,1.82,0,0,1-.33.11Z"/><path class="cls-4" d="M8.62,8.62h6.76v6.76H8.62Z"/><path class="cls-3" d="M12,10v2.41a1.05,1.05,0,0,0-.94-.09,1.14,1.14,0,0,0-.73.86,1.13,1.13,0,0,0,1.29,1.31,1.16,1.16,0,0,0,.94-1.16V10.59h.57a.56.56,0,0,0,0-1.12h-.57A.56.56,0,0,0,12,10Z"/></svg>