<?xml version="1.0" ?><svg data-name="Layer 1" id="Layer_1" viewBox="0 0 24 24" xmlns="http://www.w3.org/2000/svg"><defs><style>.cls-1{fill:#673ab7;}.cls-2{fill:#b388ff;}.cls-3{fill:#ede7f6;}.cls-4{fill:none;}</style></defs><title/><path class="cls-1" d="M16.5,22h-9a3,3,0,0,1-3-3V5a3,3,0,0,1,3-3h6.59a1,1,0,0,1,.7.29l4.42,4.42a1,1,0,0,1,.29.7V19A3,3,0,0,1,16.5,22Z"/><path class="cls-2" d="M18.8,7.74H15.2a1.5,1.5,0,0,1-1.5-1.5V2.64a.55.55,0,0,1,.94-.39L19.19,6.8A.55.55,0,0,1,18.8,7.74Z"/><path class="cls-3" d="M7.16,19.3a.44.44,0,0,1-.33-.11.5.5,0,0,1-.11-.34V17.2c0-.3.14-.45.43-.45a.39.39,0,0,1,.44.38.74.74,0,0,1,.3-.28.94.94,0,0,1,.45-.11.86.86,0,0,1,.43.11.74.74,0,0,1,.28.34.83.83,0,0,1,.34-.33.94.94,0,0,1,.47-.12.78.78,0,0,1,.64.26,1.25,1.25,0,0,1,.21.8v1.05a.45.45,0,0,1-.12.34.55.55,0,0,1-.66,0,.5.5,0,0,1-.11-.34v-1a.49.49,0,0,0-.07-.31.22.22,0,0,0-.21-.1.31.31,0,0,0-.28.13.58.58,0,0,0-.1.37v.93a.45.45,0,0,1-.12.34.41.41,0,0,1-.33.11.44.44,0,0,1-.33-.11.45.45,0,0,1-.11-.34v-1a.56.56,0,0,0-.07-.31.22.22,0,0,0-.21-.1.32.32,0,0,0-.28.13.58.58,0,0,0-.1.37v.93A.4.4,0,0,1,7.16,19.3Z"/><path class="cls-3" d="M13.27,19.3a.44.44,0,0,1-.33-.11.45.45,0,0,1-.12-.34v-.18h-1a.57.57,0,0,1-.34-.1.38.38,0,0,1-.12-.3.67.67,0,0,1,0-.24,1.7,1.7,0,0,1,.16-.27L12.78,16a.77.77,0,0,1,.22-.22.66.66,0,0,1,.3-.07.41.41,0,0,1,.3.12.5.5,0,0,1,.11.34V18h.12c.25,0,.38.12.38.35s-.13.35-.38.35h-.12v.18a.45.45,0,0,1-.12.34A.44.44,0,0,1,13.27,19.3ZM12.82,18V17l-.65,1Z"/><path class="cls-3" d="M15.7,19.31a1.12,1.12,0,0,1-.5-.1.91.91,0,0,1-.35-.29.74.74,0,0,1-.12-.42.63.63,0,0,1,.14-.42.87.87,0,0,1,.45-.23,4.63,4.63,0,0,1,.83-.06h.19v-.07a.33.33,0,0,0-.09-.26.52.52,0,0,0-.32-.07l-.27,0a2.05,2.05,0,0,0-.34.1.32.32,0,0,1-.27,0,.29.29,0,0,1-.14-.19.32.32,0,0,1,0-.25.37.37,0,0,1,.22-.18,2.16,2.16,0,0,1,.45-.12l.37,0a1.32,1.32,0,0,1,.91.27,1,1,0,0,1,.3.83v1c0,.3-.14.45-.41.45a.38.38,0,0,1-.42-.4.51.51,0,0,1-.24.3A.68.68,0,0,1,15.7,19.31Zm.2-.58a.43.43,0,0,0,.31-.12.39.39,0,0,0,.13-.31v-.09h-.19a1.12,1.12,0,0,0-.43.06.2.2,0,0,0-.14.2.27.27,0,0,0,.08.19A.36.36,0,0,0,15.9,18.73Z"/><path class="cls-4" d="M8.62,8.62h6.76v6.76H8.62Z"/><path class="cls-3" d="M12,10v2.41a1.05,1.05,0,0,0-.94-.09,1.14,1.14,0,0,0-.73.86,1.13,1.13,0,0,0,1.29,1.31,1.16,1.16,0,0,0,.94-1.16V10.59h.57a.56.56,0,0,0,0-1.12h-.57A.56.56,0,0,0,12,10Z"/></svg>