<?xml version="1.0" ?><svg data-name="Layer 1" id="Layer_1" viewBox="0 0 24 24" xmlns="http://www.w3.org/2000/svg"><defs><style>.cls-1{fill:#009688;}.cls-2{fill:#a7ffeb;}.cls-3{fill:#e0f2f1;}</style></defs><title/><path class="cls-1" d="M16.5,22h-9a3,3,0,0,1-3-3V5a3,3,0,0,1,3-3h6.59a1,1,0,0,1,.7.29l4.42,4.42a1,1,0,0,1,.29.7V19A3,3,0,0,1,16.5,22Z"/><path class="cls-2" d="M18.8,7.74H15.2a1.5,1.5,0,0,1-1.5-1.5V2.64a.55.55,0,0,1,.94-.39L19.19,6.8A.55.55,0,0,1,18.8,7.74Z"/><path class="cls-3" d="M6.25,18.3a.44.44,0,0,1-.33-.11.5.5,0,0,1-.11-.34V16.2c0-.3.14-.45.43-.45a.38.38,0,0,1,.43.38A.84.84,0,0,1,7,15.85a.91.91,0,0,1,.45-.11.86.86,0,0,1,.43.11.74.74,0,0,1,.28.34.83.83,0,0,1,.34-.33A.94.94,0,0,1,9,15.74a.78.78,0,0,1,.64.26,1.25,1.25,0,0,1,.21.8v1.05a.45.45,0,0,1-.12.34.55.55,0,0,1-.66,0,.5.5,0,0,1-.11-.34v-1a.49.49,0,0,0-.07-.31.22.22,0,0,0-.21-.1.34.34,0,0,0-.29.13.65.65,0,0,0-.09.37v.93a.45.45,0,0,1-.12.34.55.55,0,0,1-.66,0,.45.45,0,0,1-.11-.34v-1a.56.56,0,0,0-.07-.31.23.23,0,0,0-.21-.1.32.32,0,0,0-.28.13.58.58,0,0,0-.1.37v.93A.4.4,0,0,1,6.25,18.3Z"/><path class="cls-3" d="M11.81,18.31a1.59,1.59,0,0,1-.72-.15,1.15,1.15,0,0,1-.48-.45,1.47,1.47,0,0,1,0-1.37,1.2,1.2,0,0,1,.48-.44,1.68,1.68,0,0,1,1.43,0,1.14,1.14,0,0,1,.48.44,1.55,1.55,0,0,1,0,1.37,1.1,1.1,0,0,1-.48.45A1.58,1.58,0,0,1,11.81,18.31Zm0-.65a.43.43,0,0,0,.33-.15.76.76,0,0,0,.13-.48.78.78,0,0,0-.13-.49.45.45,0,0,0-.33-.14.46.46,0,0,0-.34.14.72.72,0,0,0-.13.49.71.71,0,0,0,.13.48A.43.43,0,0,0,11.81,17.66Z"/><path class="cls-3" d="M15.45,18.31a1,1,0,0,1-.45-.1.81.81,0,0,1-.3-.28.38.38,0,0,1-.43.37.39.39,0,0,1-.44-.45V15.13a.39.39,0,0,1,.44-.45.42.42,0,0,1,.33.12.45.45,0,0,1,.12.33v1a.77.77,0,0,1,.3-.26,1.07,1.07,0,0,1,.43-.09,1,1,0,0,1,.94.6,1.75,1.75,0,0,1,0,1.37,1,1,0,0,1-.38.45A1,1,0,0,1,15.45,18.31Zm-.28-.65a.4.4,0,0,0,.33-.15.71.71,0,0,0,.13-.48.72.72,0,0,0-.13-.49.42.42,0,0,0-.33-.14.44.44,0,0,0-.33.14.72.72,0,0,0-.13.49.71.71,0,0,0,.13.48A.41.41,0,0,0,15.17,17.66Z"/><path class="cls-3" d="M17.63,15.39a.49.49,0,0,1-.36-.11.38.38,0,0,1-.13-.32.37.37,0,0,1,.13-.31.53.53,0,0,1,.36-.11c.33,0,.5.14.5.42a.41.41,0,0,1-.13.32A.53.53,0,0,1,17.63,15.39Zm0,2.91a.45.45,0,0,1-.33-.12.55.55,0,0,1-.11-.36V16.24a.53.53,0,0,1,.11-.36.48.48,0,0,1,.66,0,.49.49,0,0,1,.12.36v1.58a.55.55,0,0,1-.11.36A.45.45,0,0,1,17.63,18.3Z"/></svg>