<?xml version="1.0" ?><svg data-name="Layer 1" id="Layer_1" viewBox="0 0 24 24" xmlns="http://www.w3.org/2000/svg"><defs><style>.cls-1{fill:#673ab7;}.cls-2{fill:#b388ff;}.cls-3{fill:#ede7f6;}.cls-4{fill:none;}</style></defs><title/><path class="cls-1" d="M16.5,22h-9a3,3,0,0,1-3-3V5a3,3,0,0,1,3-3h6.59a1,1,0,0,1,.7.29l4.42,4.42a1,1,0,0,1,.29.7V19A3,3,0,0,1,16.5,22Z"/><path class="cls-2" d="M18.8,7.74H15.2a1.5,1.5,0,0,1-1.5-1.5V2.64a.55.55,0,0,1,.94-.39L19.19,6.8A.55.55,0,0,1,18.8,7.74Z"/><path class="cls-3" d="M7.08,19.3a.4.4,0,0,1-.32-.11.45.45,0,0,1-.12-.34V17.2a.39.39,0,0,1,.44-.45.38.38,0,0,1,.43.38.74.74,0,0,1,.3-.28.94.94,0,0,1,.45-.11.83.83,0,0,1,.43.11.68.68,0,0,1,.28.34.9.9,0,0,1,.34-.33,1,1,0,0,1,.48-.12.79.79,0,0,1,.64.26,1.32,1.32,0,0,1,.2.8v1.05a.5.5,0,0,1-.11.34.45.45,0,0,1-.34.11.4.4,0,0,1-.32-.11.45.45,0,0,1-.12-.34v-1a.58.58,0,0,0-.06-.31.25.25,0,0,0-.22-.1.32.32,0,0,0-.28.13.58.58,0,0,0-.1.37v.93a.5.5,0,0,1-.11.34.44.44,0,0,1-.33.11.45.45,0,0,1-.34-.11.5.5,0,0,1-.11-.34v-1a.49.49,0,0,0-.07-.31.22.22,0,0,0-.21-.1.33.33,0,0,0-.28.13.65.65,0,0,0-.1.37v.93A.4.4,0,0,1,7.08,19.3Z"/><path class="cls-3" d="M11.85,20.21c-.3,0-.44-.16-.44-.46V17.2c0-.3.14-.45.43-.45a.38.38,0,0,1,.44.37.68.68,0,0,1,.3-.28,1,1,0,0,1,.45-.1,1,1,0,0,1,.56.16,1,1,0,0,1,.38.44,1.75,1.75,0,0,1,0,1.37,1,1,0,0,1-.38.45,1.1,1.1,0,0,1-1,.06.7.7,0,0,1-.3-.26v.79a.45.45,0,0,1-.12.34A.45.45,0,0,1,11.85,20.21Zm.9-1.55a.43.43,0,0,0,.33-.15.71.71,0,0,0,.13-.48.72.72,0,0,0-.13-.49.45.45,0,0,0-.33-.14.46.46,0,0,0-.34.14.78.78,0,0,0-.13.49.76.76,0,0,0,.13.48A.43.43,0,0,0,12.75,18.66Z"/><path class="cls-3" d="M15.9,19.31a2.24,2.24,0,0,1-.52,0,1.75,1.75,0,0,1-.44-.14.58.58,0,0,1-.22-.18.37.37,0,0,1-.05-.23.32.32,0,0,1,.08-.2.43.43,0,0,1,.19-.13.38.38,0,0,1,.27,0,1.9,1.9,0,0,0,.34.11,1.63,1.63,0,0,0,.31,0c.36,0,.54-.13.54-.37s-.16-.34-.48-.34h-.27a.38.38,0,0,1-.29-.1.41.41,0,0,1,0-.54.42.42,0,0,1,.29-.09h.18a.57.57,0,0,0,.34-.09.31.31,0,0,0,.12-.26c0-.23-.15-.34-.46-.34a1.43,1.43,0,0,0-.29,0,1.39,1.39,0,0,0-.31.1.35.35,0,0,1-.24,0,.36.36,0,0,1-.18-.12.41.41,0,0,1-.08-.19.34.34,0,0,1,0-.22.4.4,0,0,1,.19-.17,2.15,2.15,0,0,1,1-.22,1.48,1.48,0,0,1,.92.26A.91.91,0,0,1,17,17.12a.73.73,0,0,1-.37.3.82.82,0,0,1,.45.31.9.9,0,0,1,.17.55.92.92,0,0,1-.37.76A1.68,1.68,0,0,1,15.9,19.31Z"/><path class="cls-4" d="M8.62,8.62h6.76v6.76H8.62Z"/><path class="cls-3" d="M12,10v2.41a1.05,1.05,0,0,0-.94-.09,1.14,1.14,0,0,0-.73.86,1.13,1.13,0,0,0,1.29,1.31,1.16,1.16,0,0,0,.94-1.16V10.59h.57a.56.56,0,0,0,0-1.12h-.57A.56.56,0,0,0,12,10Z"/></svg>