<?xml version="1.0" ?><svg data-name="Layer 1" id="Layer_1" viewBox="0 0 24 24" xmlns="http://www.w3.org/2000/svg"><defs><style>.cls-1{fill:#4caf50;}.cls-2{fill:#b9f6ca;}.cls-3{fill:#e8f5e9;}</style></defs><title/><path class="cls-1" d="M16.5,22h-9a3,3,0,0,1-3-3V5a3,3,0,0,1,3-3h6.59a1,1,0,0,1,.7.29l4.42,4.42a1,1,0,0,1,.29.7V19A3,3,0,0,1,16.5,22Z"/><path class="cls-2" d="M18.8,7.74H15.2a1.5,1.5,0,0,1-1.5-1.5V2.64a.55.55,0,0,1,.94-.39L19.19,6.8A.55.55,0,0,1,18.8,7.74Z"/><path class="cls-3" d="M8.59,18.11a1.8,1.8,0,0,1-.82-.17,1.33,1.33,0,0,1-.54-.51,1.72,1.72,0,0,1,0-1.57,1.33,1.33,0,0,1,.54-.51,1.8,1.8,0,0,1,.82-.18,1.77,1.77,0,0,1,.82.18,1.33,1.33,0,0,1,.54.51,1.72,1.72,0,0,1,0,1.57,1.33,1.33,0,0,1-.54.51A1.77,1.77,0,0,1,8.59,18.11Zm0-.74A.48.48,0,0,0,9,17.19a.8.8,0,0,0,.15-.55A.82.82,0,0,0,9,16.09a.51.51,0,0,0-.76,0,.82.82,0,0,0-.15.55.8.8,0,0,0,.15.55A.48.48,0,0,0,8.59,17.37Z"/><path class="cls-3" d="M11.85,18.11a1.1,1.1,0,0,1-.63-.17,1.22,1.22,0,0,1-.44-.51,2,2,0,0,1,0-1.57,1.22,1.22,0,0,1,.44-.51,1.11,1.11,0,0,1,.63-.18,1.06,1.06,0,0,1,.5.12,1,1,0,0,1,.35.28V14.48a.44.44,0,0,1,.5-.51.46.46,0,0,1,.51.51v3.11a.5.5,0,0,1-1,.08.76.76,0,0,1-.34.32A1.14,1.14,0,0,1,11.85,18.11Zm.33-.74a.48.48,0,0,0,.38-.18.8.8,0,0,0,.15-.55.82.82,0,0,0-.15-.55.5.5,0,0,0-.38-.17.49.49,0,0,0-.38.17.82.82,0,0,0-.15.55.8.8,0,0,0,.15.55A.46.46,0,0,0,12.18,17.37Z"/><path class="cls-3" d="M15.57,18.11a3,3,0,0,1-.52,0,1.71,1.71,0,0,1-.47-.13.36.36,0,0,1-.23-.2.39.39,0,0,1,0-.26.35.35,0,0,1,.16-.2.28.28,0,0,1,.27,0,2.18,2.18,0,0,0,.43.12,1.67,1.67,0,0,0,.37,0,.6.6,0,0,0,.31-.06.18.18,0,0,0,.09-.16.15.15,0,0,0-.06-.13.38.38,0,0,0-.17-.06l-.64-.11a.94.94,0,0,1-.55-.25.73.73,0,0,1-.19-.53.85.85,0,0,1,.17-.51,1.07,1.07,0,0,1,.46-.33,1.83,1.83,0,0,1,.68-.12,3.3,3.3,0,0,1,.47,0,2,2,0,0,1,.41.13.33.33,0,0,1,.2.2.34.34,0,0,1,0,.26.31.31,0,0,1-.16.19.32.32,0,0,1-.29,0,1.82,1.82,0,0,0-.33-.11,1.47,1.47,0,0,0-.27,0,.62.62,0,0,0-.33.07.18.18,0,0,0-.1.16c0,.1.07.16.21.19l.64.11a1,1,0,0,1,.56.24.7.7,0,0,1,.2.52.83.83,0,0,1-.36.72A1.56,1.56,0,0,1,15.57,18.11Z"/></svg>