<?xml version="1.0" ?><svg data-name="Layer 1" id="Layer_1" viewBox="0 0 24 24" xmlns="http://www.w3.org/2000/svg"><defs><style>.cls-1{fill:#2196f3;}.cls-2{fill:#82b1ff;}.cls-3{fill:#e3f2fd;}</style></defs><title/><path class="cls-1" d="M16.5,22h-9a3,3,0,0,1-3-3V5a3,3,0,0,1,3-3h6.59a1,1,0,0,1,.7.29l4.42,4.42a1,1,0,0,1,.29.7V19A3,3,0,0,1,16.5,22Z"/><path class="cls-2" d="M18.8,7.74H15.2a1.5,1.5,0,0,1-1.5-1.5V2.64a.55.55,0,0,1,.94-.39L19.19,6.8A.55.55,0,0,1,18.8,7.74Z"/><path class="cls-3" d="M8.79,18.11A1.8,1.8,0,0,1,8,17.94a1.33,1.33,0,0,1-.54-.51,1.72,1.72,0,0,1,0-1.57A1.33,1.33,0,0,1,8,15.35a1.8,1.8,0,0,1,.82-.18,1.77,1.77,0,0,1,.82.18,1.33,1.33,0,0,1,.54.51,1.72,1.72,0,0,1,0,1.57,1.33,1.33,0,0,1-.54.51A1.77,1.77,0,0,1,8.79,18.11Zm0-.74a.48.48,0,0,0,.38-.18.8.8,0,0,0,.15-.55.82.82,0,0,0-.15-.55.51.51,0,0,0-.76,0,.82.82,0,0,0-.15.55.8.8,0,0,0,.15.55A.48.48,0,0,0,8.79,17.37Z"/><path class="cls-3" d="M12.05,18.11a1.1,1.1,0,0,1-.63-.17,1.22,1.22,0,0,1-.44-.51,2,2,0,0,1,0-1.57,1.22,1.22,0,0,1,.44-.51,1.11,1.11,0,0,1,.63-.18,1.06,1.06,0,0,1,.5.12,1,1,0,0,1,.35.28V14.48a.45.45,0,0,1,.51-.51.49.49,0,0,1,.37.13.5.5,0,0,1,.13.38v3.11a.5.5,0,0,1-1,.08.76.76,0,0,1-.34.32A1.14,1.14,0,0,1,12.05,18.11Zm.33-.74a.48.48,0,0,0,.38-.18.8.8,0,0,0,.15-.55.82.82,0,0,0-.15-.55.5.5,0,0,0-.38-.17.49.49,0,0,0-.38.17.82.82,0,0,0-.15.55.8.8,0,0,0,.15.55A.46.46,0,0,0,12.38,17.37Z"/><path class="cls-3" d="M16.12,18.11a1.34,1.34,0,0,1-1-.29,1.23,1.23,0,0,1-.31-.9V16h-.19a.34.34,0,0,1-.38-.38.33.33,0,0,1,.38-.37h.19v-.36A.51.51,0,0,1,15,14.5a.48.48,0,0,1,.37-.13.45.45,0,0,1,.51.51v.36h.47c.26,0,.39.12.39.37a.34.34,0,0,1-.39.38h-.47v.89a.37.37,0,0,0,.42.42l.16,0,.13,0a.2.2,0,0,1,.15.06.41.41,0,0,1,.06.27.84.84,0,0,1-.05.29.35.35,0,0,1-.19.17.87.87,0,0,1-.21,0A1.06,1.06,0,0,1,16.12,18.11Z"/></svg>