<?xml version="1.0" ?><svg data-name="Layer 1" id="Layer_1" viewBox="0 0 24 24" xmlns="http://www.w3.org/2000/svg"><defs><style>.cls-1{fill:#673ab7;}.cls-2{fill:#b388ff;}.cls-3{fill:#ede7f6;}.cls-4{fill:none;}</style></defs><title/><path class="cls-1" d="M16.5,22h-9a3,3,0,0,1-3-3V5a3,3,0,0,1,3-3h6.59a1,1,0,0,1,.7.29l4.42,4.42a1,1,0,0,1,.29.7V19A3,3,0,0,1,16.5,22Z"/><path class="cls-2" d="M18.8,7.74H15.2a1.5,1.5,0,0,1-1.5-1.5V2.64a.55.55,0,0,1,.94-.39L19.19,6.8A.55.55,0,0,1,18.8,7.74Z"/><path class="cls-3" d="M8.55,19.31a1.66,1.66,0,0,1-.72-.15,1.07,1.07,0,0,1-.47-.45,1.47,1.47,0,0,1,0-1.37,1.11,1.11,0,0,1,.47-.44,1.7,1.7,0,0,1,1.44,0,1.11,1.11,0,0,1,.47.44,1.47,1.47,0,0,1,0,1.37,1.07,1.07,0,0,1-.47.45A1.66,1.66,0,0,1,8.55,19.31Zm0-.65a.43.43,0,0,0,.33-.15A.71.71,0,0,0,9,18a.72.72,0,0,0-.13-.49.45.45,0,0,0-.33-.14.42.42,0,0,0-.33.14.72.72,0,0,0-.13.49.71.71,0,0,0,.13.48A.4.4,0,0,0,8.55,18.66Z"/><path class="cls-3" d="M11.79,20.21a2.55,2.55,0,0,1-.94-.14.38.38,0,0,1-.23-.19.36.36,0,0,1,0-.25.37.37,0,0,1,.14-.2.3.3,0,0,1,.25,0,1.72,1.72,0,0,0,.39.12l.31,0a.68.68,0,0,0,.46-.13.49.49,0,0,0,.15-.4V18.8a.73.73,0,0,1-.31.29,1,1,0,0,1-.45.1A1.09,1.09,0,0,1,11,19a1,1,0,0,1-.38-.43,1.56,1.56,0,0,1,0-1.29,1.13,1.13,0,0,1,.38-.43,1.09,1.09,0,0,1,.58-.15,1,1,0,0,1,.45.1.63.63,0,0,1,.3.28.39.39,0,0,1,.44-.37.39.39,0,0,1,.44.45v1.73a1.21,1.21,0,0,1-.36,1A1.48,1.48,0,0,1,11.79,20.21Zm0-1.67a.44.44,0,0,0,.35-.15.74.74,0,0,0,0-.84.44.44,0,0,0-.35-.15.42.42,0,0,0-.34.15.74.74,0,0,0,0,.84A.42.42,0,0,0,11.82,18.54Z"/><path class="cls-3" d="M15.18,20.21a2.46,2.46,0,0,1-.93-.14.4.4,0,0,1-.24-.19.39.39,0,0,1,.13-.45.3.3,0,0,1,.25,0,1.79,1.79,0,0,0,.4.12l.3,0a.67.67,0,0,0,.46-.13.49.49,0,0,0,.15-.4V18.8a.73.73,0,0,1-.31.29,1,1,0,0,1-.45.1,1.11,1.11,0,0,1-.58-.15,1,1,0,0,1-.38-.43,1.56,1.56,0,0,1,0-1.29,1.13,1.13,0,0,1,.38-.43,1.11,1.11,0,0,1,.58-.15,1,1,0,0,1,.45.1.63.63,0,0,1,.3.28.4.4,0,0,1,.45-.37.39.39,0,0,1,.43.45v1.73a1.21,1.21,0,0,1-.36,1A1.46,1.46,0,0,1,15.18,20.21Zm0-1.67a.43.43,0,0,0,.35-.15.74.74,0,0,0,0-.84.43.43,0,0,0-.35-.15.43.43,0,0,0-.34.15.74.74,0,0,0,0,.84A.43.43,0,0,0,15.21,18.54Z"/><path class="cls-4" d="M8.62,8.62h6.76v6.76H8.62Z"/><path class="cls-3" d="M12,10v2.41a1.05,1.05,0,0,0-.94-.09,1.14,1.14,0,0,0-.73.86,1.13,1.13,0,0,0,1.29,1.31,1.16,1.16,0,0,0,.94-1.16V10.59h.57a.56.56,0,0,0,0-1.12h-.57A.56.56,0,0,0,12,10Z"/></svg>