<?xml version="1.0" ?><svg data-name="Layer 1" id="Layer_1" viewBox="0 0 24 24" xmlns="http://www.w3.org/2000/svg"><defs><style>.cls-1{fill:#757575;}.cls-2{fill:#e0e0e0;}.cls-3{fill:#fafafa;}</style></defs><title/><path class="cls-1" d="M16.5,22h-9a3,3,0,0,1-3-3V5a3,3,0,0,1,3-3h6.59a1,1,0,0,1,.7.29l4.42,4.42a1,1,0,0,1,.29.7V19A3,3,0,0,1,16.5,22Z"/><path class="cls-2" d="M18.8,7.74H15.2a1.5,1.5,0,0,1-1.5-1.5V2.64a.55.55,0,0,1,.94-.39L19.19,6.8A.55.55,0,0,1,18.8,7.74Z"/><path class="cls-3" d="M9.55,18.31a1.58,1.58,0,0,1-.71-.15,1.1,1.1,0,0,1-.48-.45,1.47,1.47,0,0,1,0-1.37,1.14,1.14,0,0,1,.48-.44,1.68,1.68,0,0,1,1.43,0,1.11,1.11,0,0,1,.47.44,1.47,1.47,0,0,1,0,1.37,1.07,1.07,0,0,1-.47.45A1.59,1.59,0,0,1,9.55,18.31Zm0-.65a.4.4,0,0,0,.33-.15A.71.71,0,0,0,10,17a.72.72,0,0,0-.13-.49.42.42,0,0,0-.33-.14.45.45,0,0,0-.33.14.72.72,0,0,0-.13.49.71.71,0,0,0,.13.48A.43.43,0,0,0,9.55,17.66Z"/><path class="cls-3" d="M12.88,18.31a1.14,1.14,0,0,1-.84-.26,1,1,0,0,1-.27-.78v-.82H11.6a.33.33,0,0,1,0-.66h.17v-.31a.42.42,0,0,1,.45-.45.4.4,0,0,1,.45.45v.31h.41a.33.33,0,1,1,0,.66h-.41v.79a.32.32,0,0,0,.36.36l.14,0h.12a.14.14,0,0,1,.13.05.37.37,0,0,1,.05.23.67.67,0,0,1-.05.26.28.28,0,0,1-.16.14l-.19.05Z"/><path class="cls-3" d="M14.73,18.3a.44.44,0,0,1-.33-.11.45.45,0,0,1-.11-.34v-1.4h-.13c-.23,0-.34-.11-.34-.33s.11-.33.34-.33h.13a1,1,0,0,1,.3-.76,1.37,1.37,0,0,1,.8-.31h.15a.39.39,0,0,1,.25,0,.24.24,0,0,1,.13.15.31.31,0,0,1,0,.19.34.34,0,0,1-.08.17.23.23,0,0,1-.16.08h-.07a.55.55,0,0,0-.35.11.33.33,0,0,0-.1.27v.07h.28c.23,0,.34.11.34.33s-.11.33-.34.33h-.28v1.4A.4.4,0,0,1,14.73,18.3Z"/></svg>