<?xml version="1.0" ?><svg data-name="Layer 1" id="Layer_1" viewBox="0 0 24 24" xmlns="http://www.w3.org/2000/svg"><defs><style>.cls-1{fill:#757575;}.cls-2{fill:#bdbdbd;}.cls-3{fill:#f5f5f5;}</style></defs><title/><path class="cls-1" d="M16.5,22h-9a3,3,0,0,1-3-3V5a3,3,0,0,1,3-3h6.59a1,1,0,0,1,.7.29l4.42,4.42a1,1,0,0,1,.29.7V19A3,3,0,0,1,16.5,22Z"/><path class="cls-2" d="M18.8,7.74H15.2a1.5,1.5,0,0,1-1.5-1.5V2.64a.55.55,0,0,1,.94-.39L19.19,6.8A.55.55,0,0,1,18.8,7.74Z"/><path class="cls-3" d="M16,12.65H8a.5.5,0,0,1-.5-.5.5.5,0,0,1,.5-.5h8a.5.5,0,0,1,.5.5A.5.5,0,0,1,16,12.65Z"/><path class="cls-3" d="M16,15.5H8a.5.5,0,0,1,0-1h8a.5.5,0,0,1,0,1Z"/><path class="cls-3" d="M16,18.35H8a.5.5,0,0,1-.5-.5.5.5,0,0,1,.5-.5h8a.5.5,0,0,1,.5.5A.5.5,0,0,1,16,18.35Z"/></svg>