<?xml version="1.0" ?><svg height="64" preserveAspectRatio="xMidYMid" viewBox="0 0 49 64" width="49" xmlns="http://www.w3.org/2000/svg" xmlns:xlink="http://www.w3.org/1999/xlink"><defs><style>
      .cls-1 {
        fill: #192257;
      }

      .cls-1, .cls-2, .cls-3 {
        fill-rule: evenodd;
      }

      .cls-2 {
        fill: #fff;
      }

      .cls-3 {
        fill: #69d8f0;
      }
    </style></defs><g><path class="cls-1" d="M49.000,16.842 L49.000,58.947 C49.000,61.738 46.730,64.000 43.931,64.000 L5.069,64.000 C2.269,64.000 -0.000,61.738 -0.000,58.947 L-0.000,5.053 C-0.000,2.262 2.269,-0.000 5.069,-0.000 L32.103,-0.000 L49.000,16.842 Z"/><path class="cls-2" d="M35.698,45.536 L35.698,44.613 C35.263,44.981 34.803,45.274 34.319,45.491 C33.835,45.708 33.284,45.816 32.667,45.816 C31.469,45.816 30.553,45.385 29.918,44.523 C29.282,43.660 28.965,42.442 28.965,40.868 C28.965,39.258 29.314,38.007 30.013,37.114 C30.712,36.222 31.693,35.775 32.958,35.775 C33.405,35.775 33.865,35.867 34.337,36.051 C34.809,36.235 35.199,36.469 35.508,36.752 L35.508,32.066 L37.849,32.066 L37.849,45.536 L35.698,45.536 ZM35.508,38.679 C35.260,38.456 34.953,38.258 34.587,38.086 C34.221,37.915 33.847,37.829 33.466,37.829 C32.837,37.829 32.332,38.099 31.950,38.638 C31.569,39.178 31.379,39.909 31.379,40.832 C31.379,41.743 31.534,42.457 31.846,42.976 C32.158,43.495 32.640,43.754 33.294,43.754 C33.681,43.754 34.075,43.665 34.478,43.487 C34.880,43.309 35.223,43.090 35.508,42.831 L35.508,38.679 ZM24.417,39.629 C25.500,39.894 26.273,40.158 26.736,40.420 C27.199,40.683 27.550,41.008 27.789,41.397 C28.028,41.786 28.147,42.264 28.147,42.831 C28.147,43.458 27.988,43.995 27.671,44.441 C27.353,44.888 26.902,45.228 26.318,45.463 C25.735,45.699 25.067,45.816 24.317,45.816 C22.327,45.816 20.972,45.264 20.252,44.161 L21.994,42.940 C22.278,43.326 22.607,43.583 22.979,43.713 C23.351,43.843 23.749,43.908 24.172,43.908 C25.285,43.908 25.842,43.585 25.842,42.940 C25.842,42.656 25.685,42.438 25.370,42.284 C25.055,42.130 24.562,41.972 23.891,41.809 C22.626,41.532 21.737,41.139 21.223,40.633 C20.708,40.126 20.451,39.469 20.451,38.661 C20.451,37.823 20.773,37.132 21.418,36.589 C22.062,36.047 23.011,35.775 24.263,35.775 C25.116,35.775 25.868,35.911 26.518,36.182 C27.168,36.454 27.669,36.861 28.020,37.403 L26.269,38.643 C25.851,38.004 25.170,37.684 24.227,37.684 C23.742,37.684 23.376,37.767 23.128,37.933 C22.880,38.099 22.756,38.311 22.756,38.570 C22.756,38.818 22.868,39.015 23.092,39.163 C23.316,39.311 23.758,39.466 24.417,39.629 ZM17.674,45.201 C17.099,45.611 16.412,45.816 15.613,45.816 C14.561,45.816 13.662,45.488 12.918,44.830 L12.918,49.109 L10.577,49.109 L10.577,36.047 L12.737,36.047 L12.737,36.978 C13.172,36.604 13.630,36.310 14.111,36.096 C14.592,35.882 15.144,35.775 15.768,35.775 C16.972,35.775 17.888,36.197 18.518,37.042 C19.147,37.886 19.461,39.113 19.461,40.723 C19.461,41.743 19.307,42.641 18.998,43.419 C18.690,44.197 18.248,44.791 17.674,45.201 ZM16.566,38.602 C16.246,38.086 15.768,37.829 15.132,37.829 C14.751,37.829 14.359,37.918 13.957,38.095 C13.555,38.273 13.208,38.492 12.918,38.751 L12.918,42.903 C13.166,43.127 13.473,43.324 13.839,43.496 C14.205,43.668 14.582,43.754 14.969,43.754 C15.610,43.754 16.117,43.481 16.489,42.935 C16.861,42.389 17.047,41.664 17.047,40.760 C17.047,39.837 16.887,39.118 16.566,38.602 Z"/><path class="cls-3" d="M49.000,15.899 L49.000,17.995 L35.187,17.995 C32.327,17.995 31.008,15.675 31.008,12.814 L31.008,-0.000 L33.100,-0.000 L49.000,15.899 Z"/></g></svg>