<?xml version="1.0" ?><svg data-name="Layer 1" id="Layer_1" viewBox="0 0 24 24" xmlns="http://www.w3.org/2000/svg"><defs><style>.cls-1{fill:#795548;}.cls-2{fill:#d7ccc8;}.cls-3{fill:#efebe9;}</style></defs><title/><path class="cls-1" d="M16.5,22h-9a3,3,0,0,1-3-3V5a3,3,0,0,1,3-3h6.59a1,1,0,0,1,.7.29l4.42,4.42a1,1,0,0,1,.29.7V19A3,3,0,0,1,16.5,22Z"/><path class="cls-2" d="M18.8,7.74H15.2a1.5,1.5,0,0,1-1.5-1.5V2.64a.55.55,0,0,1,.94-.39L19.19,6.8A.55.55,0,0,1,18.8,7.74Z"/><path class="cls-3" d="M8.71,18.1a.46.46,0,0,1-.53-.51v-1.9a.45.45,0,0,1,.5-.51.5.5,0,0,1,.37.14.51.51,0,0,1,.12.37v0a.87.87,0,0,1,.32-.39,1.05,1.05,0,0,1,.51-.15.32.32,0,0,1,.25.09.44.44,0,0,1,.09.32.62.62,0,0,1-.08.33.43.43,0,0,1-.33.14l-.13,0a.66.66,0,0,0-.44.16.61.61,0,0,0-.14.42v.94A.45.45,0,0,1,8.71,18.1Z"/><path class="cls-3" d="M12.6,18.11a1.3,1.3,0,0,1-.95-.29,1.19,1.19,0,0,1-.31-.9V16h-.2a.34.34,0,0,1-.38-.38.33.33,0,0,1,.38-.37h.2v-.36a.46.46,0,0,1,.51-.51.45.45,0,0,1,.51.51v.36h.46c.26,0,.39.12.39.37a.34.34,0,0,1-.39.38h-.46v.89c0,.28.13.42.41.42l.16,0,.13,0a.18.18,0,0,1,.15.06.41.41,0,0,1,.06.27.84.84,0,0,1,0,.29.37.37,0,0,1-.18.17l-.22,0A1,1,0,0,1,12.6,18.11Z"/><path class="cls-3" d="M14.72,18.1a.46.46,0,0,1-.51-.51V16h-.15a.33.33,0,0,1-.38-.38c0-.25.12-.37.38-.37h.15a1.2,1.2,0,0,1,.34-.87,1.52,1.52,0,0,1,.92-.36h.17a.39.39,0,0,1,.29,0,.35.35,0,0,1,.15.17.42.42,0,0,1,0,.22.31.31,0,0,1-.09.19.27.27,0,0,1-.18.1h-.08a.66.66,0,0,0-.41.12.41.41,0,0,0-.11.31v.09h.32c.26,0,.39.12.39.37a.34.34,0,0,1-.39.38h-.32v1.6A.45.45,0,0,1,14.72,18.1Z"/></svg>