<?xml version="1.0" ?><svg data-name="Layer 1" id="Layer_1" viewBox="0 0 24 24" xmlns="http://www.w3.org/2000/svg"><defs><style>.cls-1{fill:#ffb300;}.cls-2{fill:#ffe57f;}.cls-3{fill:#fff8e1;}</style></defs><title/><path class="cls-1" d="M16.5,22h-9a3,3,0,0,1-3-3V5a3,3,0,0,1,3-3h6.59a1,1,0,0,1,.7.29l4.42,4.42a1,1,0,0,1,.29.7V19A3,3,0,0,1,16.5,22Z"/><path class="cls-2" d="M18.8,7.74H15.2a1.5,1.5,0,0,1-1.5-1.5V2.64a.55.55,0,0,1,.94-.39L19.19,6.8A.55.55,0,0,1,18.8,7.74Z"/><path class="cls-3" d="M9.45,18.31a3.4,3.4,0,0,1-.45,0,1.31,1.31,0,0,1-.41-.12A.34.34,0,0,1,8.38,18a.37.37,0,0,1,0-.23.32.32,0,0,1,.14-.18.28.28,0,0,1,.24,0,2.24,2.24,0,0,0,.38.11l.32,0a.46.46,0,0,0,.27-.05.17.17,0,0,0,.08-.14.14.14,0,0,0-.05-.11.52.52,0,0,0-.15-.06L9,17.26A.83.83,0,0,1,8.56,17a.65.65,0,0,1-.17-.46.72.72,0,0,1,.15-.45.94.94,0,0,1,.4-.29,1.61,1.61,0,0,1,.6-.1,1.73,1.73,0,0,1,.41,0,1.65,1.65,0,0,1,.36.11.26.26,0,0,1,.17.17.36.36,0,0,1,0,.23.35.35,0,0,1-.15.17.27.27,0,0,1-.25,0l-.29-.09a1,1,0,0,0-.24,0,.69.69,0,0,0-.29.05.19.19,0,0,0-.08.14c0,.09.06.15.18.17l.56.09a.93.93,0,0,1,.49.22.57.57,0,0,1,.17.45.73.73,0,0,1-.31.63A1.35,1.35,0,0,1,9.45,18.31Z"/><path class="cls-3" d="M11.68,18.3a.4.4,0,0,1-.45-.45V16.2c0-.3.14-.45.43-.45a.41.41,0,0,1,.32.12.41.41,0,0,1,.11.33h0a.72.72,0,0,1,.28-.34.85.85,0,0,1,.45-.13.29.29,0,0,1,.22.07.48.48,0,0,1,.08.29.5.5,0,0,1-.08.29.35.35,0,0,1-.28.12h-.12a.64.64,0,0,0-.39.15.49.49,0,0,0-.12.36v.82A.4.4,0,0,1,11.68,18.3Z"/><path class="cls-3" d="M15.09,18.31a1.12,1.12,0,0,1-.83-.26,1,1,0,0,1-.27-.78v-.82h-.17c-.23,0-.34-.11-.34-.33s.11-.33.34-.33H14v-.31a.44.44,0,0,1,.11-.33.45.45,0,0,1,.33-.12.4.4,0,0,1,.45.45v.31h.41c.23,0,.34.11.34.33s-.11.33-.34.33h-.41v.79a.32.32,0,0,0,.36.36l.14,0h.12a.13.13,0,0,1,.13.05.37.37,0,0,1,0,.23.67.67,0,0,1,0,.26.28.28,0,0,1-.16.14l-.19.05Z"/></svg>