<?xml version="1.0" ?><svg data-name="Layer 1" id="Layer_1" viewBox="0 0 24 24" xmlns="http://www.w3.org/2000/svg"><defs><style>.cls-1{fill:#757575;}.cls-2{fill:#e0e0e0;}.cls-3{fill:#fafafa;}</style></defs><title/><path class="cls-1" d="M16.5,22h-9a3,3,0,0,1-3-3V5a3,3,0,0,1,3-3h6.59a1,1,0,0,1,.7.29l4.42,4.42a1,1,0,0,1,.29.7V19A3,3,0,0,1,16.5,22Z"/><path class="cls-2" d="M18.8,7.74H15.2a1.5,1.5,0,0,1-1.5-1.5V2.64a.55.55,0,0,1,.94-.39L19.19,6.8A.55.55,0,0,1,18.8,7.74Z"/><path class="cls-3" d="M10,18.31a1.14,1.14,0,0,1-.84-.26,1,1,0,0,1-.27-.78v-.82H8.73a.33.33,0,0,1,0-.66H8.9v-.31A.42.42,0,0,1,9.35,15c.3,0,.44.15.44.45v.31h.42a.33.33,0,1,1,0,.66H9.79v.79a.33.33,0,0,0,.37.36l.14,0h.12a.14.14,0,0,1,.13.05.37.37,0,0,1,0,.23.67.67,0,0,1,0,.26.28.28,0,0,1-.16.14l-.19.05Z"/><path class="cls-3" d="M12.52,18.31a1.13,1.13,0,0,1-.83-.26,1,1,0,0,1-.27-.78v-.82h-.17a.33.33,0,1,1,0-.66h.17v-.31a.45.45,0,0,1,.12-.33.42.42,0,0,1,.33-.12c.3,0,.44.15.44.45v.31h.41c.23,0,.35.11.35.33s-.12.33-.35.33h-.41v.79a.33.33,0,0,0,.37.36l.13,0h.12a.15.15,0,0,1,.14.05.37.37,0,0,1,0,.23.67.67,0,0,1,0,.26.28.28,0,0,1-.16.14l-.19.05Z"/><path class="cls-3" d="M14.38,18.3a.44.44,0,0,1-.33-.11.45.45,0,0,1-.12-.34v-1.4H13.8a.33.33,0,1,1,0-.66h.13a1.07,1.07,0,0,1,.31-.76,1.37,1.37,0,0,1,.8-.31h.15a.39.39,0,0,1,.25,0,.24.24,0,0,1,.13.15.31.31,0,0,1,0,.19.34.34,0,0,1-.08.17.23.23,0,0,1-.16.08h-.07a.55.55,0,0,0-.35.11.33.33,0,0,0-.1.27v.07h.28a.33.33,0,1,1,0,.66h-.28v1.4A.4.4,0,0,1,14.38,18.3Z"/></svg>