<?xml version="1.0" ?><svg data-name="Layer 1" id="Layer_1" viewBox="0 0 24 24" xmlns="http://www.w3.org/2000/svg"><defs><style>.cls-1{fill:#795548;}.cls-2{fill:#d7ccc8;}.cls-3{fill:#efebe9;}</style></defs><title/><path class="cls-1" d="M16.5,22h-9a3,3,0,0,1-3-3V5a3,3,0,0,1,3-3h6.59a1,1,0,0,1,.7.29l4.42,4.42a1,1,0,0,1,.29.7V19A3,3,0,0,1,16.5,22Z"/><path class="cls-2" d="M18.8,7.74H15.2a1.5,1.5,0,0,1-1.5-1.5V2.64a.55.55,0,0,1,.94-.39L19.19,6.8A.55.55,0,0,1,18.8,7.74Z"/><path class="cls-3" d="M9.49,18.11a1.3,1.3,0,0,1-1-.29,1.19,1.19,0,0,1-.31-.9V16H8a.34.34,0,0,1-.38-.38A.33.33,0,0,1,8,15.24h.2v-.36a.46.46,0,0,1,.51-.51.45.45,0,0,1,.51.51v.36h.47c.26,0,.39.12.39.37a.34.34,0,0,1-.39.38H9.25v.89a.37.37,0,0,0,.42.42l.15,0,.14,0a.2.2,0,0,1,.15.06.5.5,0,0,1,.05.27.65.65,0,0,1-.05.29.3.3,0,0,1-.18.17l-.22,0A1,1,0,0,1,9.49,18.11Z"/><path class="cls-3" d="M11,18.1a.41.41,0,0,1-.3-.11.34.34,0,0,1-.12-.26.49.49,0,0,1,.13-.32l.67-.81-.6-.72a.51.51,0,0,1-.13-.33.32.32,0,0,1,.12-.26.41.41,0,0,1,.3-.11.66.66,0,0,1,.53.26l.35.46.36-.46a.66.66,0,0,1,.53-.26.44.44,0,0,1,.3.11.4.4,0,0,1,.12.26.53.53,0,0,1-.14.33l-.59.72.67.81a.49.49,0,0,1,.13.32.35.35,0,0,1-.13.26.42.42,0,0,1-.3.11.67.67,0,0,1-.3-.06.7.7,0,0,1-.23-.2L12,17.3l-.43.54a.64.64,0,0,1-.22.19A.51.51,0,0,1,11,18.1Z"/><path class="cls-3" d="M15.54,18.11a1.34,1.34,0,0,1-.95-.29,1.23,1.23,0,0,1-.31-.9V16h-.19a.33.33,0,0,1-.38-.38c0-.25.12-.37.38-.37h.19v-.36a.51.51,0,0,1,.14-.38.48.48,0,0,1,.37-.13.45.45,0,0,1,.51.51v.36h.47c.26,0,.39.12.39.37a.34.34,0,0,1-.39.38H15.3v.89a.37.37,0,0,0,.42.42l.15,0,.14,0a.2.2,0,0,1,.15.06.41.41,0,0,1,.06.27.84.84,0,0,1,0,.29.35.35,0,0,1-.19.17.87.87,0,0,1-.21,0A1.06,1.06,0,0,1,15.54,18.11Z"/></svg>