<?xml version="1.0" ?><svg enable-background="new 0 0 32 32" height="32px" id="svg2" version="1.1" viewBox="0 0 32 32" width="32px" xml:space="preserve" xmlns="http://www.w3.org/2000/svg" xmlns:cc="http://creativecommons.org/ns#" xmlns:dc="http://purl.org/dc/elements/1.1/" xmlns:inkscape="http://www.inkscape.org/namespaces/inkscape" xmlns:rdf="http://www.w3.org/1999/02/22-rdf-syntax-ns#" xmlns:sodipodi="http://sodipodi.sourceforge.net/DTD/sodipodi-0.dtd" xmlns:svg="http://www.w3.org/2000/svg"><g id="background"><rect fill="none" height="32" width="32"/></g><g id="upload_x5F_run"><path d="M14,14.001h4V8h4l-6-6l-6,6h4V14.001z M23,14.001c-3.121,0-5.869,1.588-7.482,4H2v8h12.523C15.76,29.494,19.082,32,23,32   c4.971,0,9-4.028,9-8.999C32,18.029,27.971,14.001,23,14.001z M8,24.001H4v-2h4V24.001z M23,30c-3.865-0.008-6.994-3.135-7-6.999   c0.006-3.865,3.134-6.994,7-7c3.865,0.006,6.992,3.135,7,7C29.992,26.865,26.865,29.992,23,30z"/><polygon points="22,19 22,27 26,23  "/></g></svg>