<?xml version="1.0" ?><svg data-name="Layer 1" id="Layer_1" viewBox="0 0 24 24" xmlns="http://www.w3.org/2000/svg"><defs><style>.cls-1{fill:#673ab7;}.cls-2{fill:#b388ff;}.cls-3{fill:#ede7f6;}.cls-4{fill:none;}</style></defs><title/><path class="cls-1" d="M16.5,22h-9a3,3,0,0,1-3-3V5a3,3,0,0,1,3-3h6.59a1,1,0,0,1,.7.29l4.42,4.42a1,1,0,0,1,.29.7V19A3,3,0,0,1,16.5,22Z"/><path class="cls-2" d="M18.8,7.74H15.2a1.5,1.5,0,0,1-1.5-1.5V2.64a.55.55,0,0,1,.94-.39L19.19,6.8A.55.55,0,0,1,18.8,7.74Z"/><path class="cls-3" d="M8.12,19.3A.5.5,0,0,1,7.63,19L7,17.32a.44.44,0,0,1,0-.4.4.4,0,0,1,.37-.17.39.39,0,0,1,.25.07.6.6,0,0,1,.18.29l.43,1.11L8.63,17A.35.35,0,0,1,9,16.75a.35.35,0,0,1,.23.07.4.4,0,0,1,.13.19l.46,1.24.44-1.17a.54.54,0,0,1,.18-.26.42.42,0,0,1,.24-.07.33.33,0,0,1,.33.17.51.51,0,0,1,0,.4L10.3,19a.52.52,0,0,1-1,0L9,18.05l-.35.9A.48.48,0,0,1,8.12,19.3Z"/><path class="cls-3" d="M12.45,19.31a1.19,1.19,0,0,1-.51-.1,1,1,0,0,1-.34-.29.74.74,0,0,1-.12-.42.63.63,0,0,1,.14-.42.87.87,0,0,1,.45-.23,4.63,4.63,0,0,1,.83-.06h.19v-.07a.33.33,0,0,0-.09-.26.54.54,0,0,0-.32-.07l-.27,0a2.05,2.05,0,0,0-.34.1.32.32,0,0,1-.27,0,.35.35,0,0,1-.15-.19.36.36,0,0,1,.25-.43,2.16,2.16,0,0,1,.45-.12l.37,0a1.32,1.32,0,0,1,.91.27,1,1,0,0,1,.3.83v1c0,.3-.14.45-.41.45a.38.38,0,0,1-.42-.4.51.51,0,0,1-.24.3A.68.68,0,0,1,12.45,19.31Zm.2-.58a.43.43,0,0,0,.31-.12.39.39,0,0,0,.13-.31v-.09H12.9a1.12,1.12,0,0,0-.43.06.2.2,0,0,0-.14.2.27.27,0,0,0,.08.19A.34.34,0,0,0,12.65,18.73Z"/><path class="cls-3" d="M15.72,19.3a.51.51,0,0,1-.5-.35l-.72-1.63a.46.46,0,0,1,0-.4.43.43,0,0,1,.39-.17.39.39,0,0,1,.25.07.6.6,0,0,1,.18.29l.43,1.08.44-1.09a.56.56,0,0,1,.18-.28.47.47,0,0,1,.28-.07.36.36,0,0,1,.23.08A.32.32,0,0,1,17,17a.49.49,0,0,1-.05.28L16.22,19A.51.51,0,0,1,15.72,19.3Z"/><path class="cls-4" d="M8.62,8.62h6.76v6.76H8.62Z"/><path class="cls-3" d="M12,10v2.41a1.05,1.05,0,0,0-.94-.09,1.14,1.14,0,0,0-.73.86,1.13,1.13,0,0,0,1.29,1.31,1.16,1.16,0,0,0,.94-1.16V10.59h.57a.56.56,0,0,0,0-1.12h-.57A.56.56,0,0,0,12,10Z"/></svg>