<?xml version="1.0" ?><svg data-name="Layer 1" id="Layer_1" viewBox="0 0 24 24" xmlns="http://www.w3.org/2000/svg"><defs><style>.cls-1{fill:#673ab7;}.cls-2{fill:#b388ff;}.cls-3{fill:#ede7f6;}.cls-4{fill:none;}</style></defs><title/><path class="cls-1" d="M16.5,22h-9a3,3,0,0,1-3-3V5a3,3,0,0,1,3-3h6.59a1,1,0,0,1,.7.29l4.42,4.42a1,1,0,0,1,.29.7V19A3,3,0,0,1,16.5,22Z"/><path class="cls-2" d="M18.8,7.74H15.2a1.5,1.5,0,0,1-1.5-1.5V2.64a.55.55,0,0,1,.94-.39L19.19,6.8A.55.55,0,0,1,18.8,7.74Z"/><path class="cls-3" d="M7.19,19.3A.49.49,0,0,1,6.7,19L6,17.32a.44.44,0,0,1,0-.4.4.4,0,0,1,.37-.17.39.39,0,0,1,.25.07.6.6,0,0,1,.18.29l.43,1.11L7.69,17a.37.37,0,0,1,.37-.26.35.35,0,0,1,.23.07.4.4,0,0,1,.13.19l.46,1.24.44-1.17a.54.54,0,0,1,.18-.26.42.42,0,0,1,.24-.07.33.33,0,0,1,.33.17.51.51,0,0,1,0,.4L9.37,19a.5.5,0,0,1-.49.34A.48.48,0,0,1,8.39,19L8,18.05l-.34.9A.49.49,0,0,1,7.19,19.3Z"/><path class="cls-3" d="M11.13,19.3a.44.44,0,0,1-.33-.11.5.5,0,0,1-.11-.34V17.2c0-.3.14-.45.43-.45a.39.39,0,0,1,.44.38.74.74,0,0,1,.3-.28.94.94,0,0,1,.45-.11.86.86,0,0,1,.43.11.74.74,0,0,1,.28.34.83.83,0,0,1,.34-.33.94.94,0,0,1,.47-.12.78.78,0,0,1,.64.26,1.25,1.25,0,0,1,.21.8v1.05a.45.45,0,0,1-.12.34.55.55,0,0,1-.66,0,.5.5,0,0,1-.11-.34v-1a.49.49,0,0,0-.07-.31.22.22,0,0,0-.21-.1.34.34,0,0,0-.29.13.65.65,0,0,0-.09.37v.93a.45.45,0,0,1-.12.34.41.41,0,0,1-.33.11.44.44,0,0,1-.33-.11.45.45,0,0,1-.11-.34v-1a.56.56,0,0,0-.07-.31.22.22,0,0,0-.21-.1.32.32,0,0,0-.28.13.58.58,0,0,0-.1.37v.93A.4.4,0,0,1,11.13,19.3Z"/><path class="cls-3" d="M16.29,19.31a1.19,1.19,0,0,1-.51-.1.88.88,0,0,1-.34-.29.74.74,0,0,1-.12-.42.63.63,0,0,1,.14-.42.8.8,0,0,1,.45-.23,4.56,4.56,0,0,1,.83-.06h.19v-.07a.3.3,0,0,0-.1-.26.49.49,0,0,0-.31-.07l-.28,0a1.73,1.73,0,0,0-.33.1.34.34,0,0,1-.28,0,.33.33,0,0,1-.14-.19.36.36,0,0,1,.25-.43,2.25,2.25,0,0,1,.44-.12l.38,0a1.32,1.32,0,0,1,.91.27,1,1,0,0,1,.3.83v1c0,.3-.14.45-.41.45a.38.38,0,0,1-.42-.4.6.6,0,0,1-.24.3A.68.68,0,0,1,16.29,19.31Zm.2-.58a.45.45,0,0,0,.31-.12.42.42,0,0,0,.13-.31v-.09h-.19a1.18,1.18,0,0,0-.44.06.2.2,0,0,0-.13.2.24.24,0,0,0,.08.19A.33.33,0,0,0,16.49,18.73Z"/><path class="cls-4" d="M8.62,8.62h6.76v6.76H8.62Z"/><path class="cls-3" d="M12,10v2.41a1.05,1.05,0,0,0-.94-.09,1.14,1.14,0,0,0-.73.86,1.13,1.13,0,0,0,1.29,1.31,1.16,1.16,0,0,0,.94-1.16V10.59h.57a.56.56,0,0,0,0-1.12h-.57A.56.56,0,0,0,12,10Z"/></svg>